<svg width="2175" height="1163" viewBox="0 0 2175 1163" fill="none" xmlns="http://www.w3.org/2000/svg">
<g id="Daleel7" clip-path="url(#clip0_534_109)">
<rect width="2175" height="1163" fill="#D1D1D1"/>
<path id="Vector 3" d="M2188 439.735C1453.24 414.579 -13.0105 552.214 0.0871653 1304" stroke="url(#paint0_linear_534_109)" stroke-width="6"/>
<rect id="Rectangle 29" opacity="0.9" x="-634" y="-673" width="3511" height="2509" fill="url(#paint1_radial_534_109)"/>
<path id="Vector 2" d="M487.649 -295C476.606 11.7859 602.148 653.676 1192.67 766.951C1783.18 880.226 1795.64 1339.51 1728.05 1555" stroke="url(#paint2_linear_534_109)" stroke-width="6"/>
<path id="Vector 1" d="M2175 -76C1761.2 -37.3939 973.437 182.07 1132.78 751.079C1292.12 1320.09 613.987 1596.78 255 1664" stroke="url(#paint3_linear_534_109)" stroke-width="6"/>
</g>
<defs>
<linearGradient id="paint0_linear_534_109" x1="2074.88" y1="422.16" x2="423.653" y2="1687.04" gradientUnits="userSpaceOnUse">
<stop offset="0.25" stop-color="#877EAD"/>
<stop offset="0.473404" stop-color="#68608D"/>
<stop offset="0.5" stop-color="#7D74A5"/>
<stop offset="0.75" stop-color="#7A739D"/>
<stop offset="1" stop-color="#605980"/>
</linearGradient>
<radialGradient id="paint1_radial_534_109" cx="0" cy="0" r="1" gradientUnits="userSpaceOnUse" gradientTransform="translate(1121.5 581.5) rotate(90) scale(1254.5 1755.5)">
<stop stop-color="white"/>
<stop offset="0.9999" stop-color="#E9E7F1" stop-opacity="0.177083"/>
<stop offset="1" stop-color="white" stop-opacity="0"/>
</radialGradient>
<linearGradient id="paint2_linear_534_109" x1="619.522" y1="165.543" x2="1173.89" y2="1452.72" gradientUnits="userSpaceOnUse">
<stop offset="0.0104167" stop-color="#6C658E"/>
<stop offset="0.40625" stop-color="#B8AEE9"/>
<stop offset="0.557292" stop-color="#AEA7D0"/>
<stop offset="1" stop-color="#575077"/>
</linearGradient>
<linearGradient id="paint3_linear_534_109" x1="1945.43" y1="-10.9775" x2="1523.83" y2="1654.37" gradientUnits="userSpaceOnUse">
<stop stop-color="#6C648D"/>
<stop offset="0.171875" stop-color="#8176AF"/>
<stop offset="0.453125" stop-color="#827AA4"/>
<stop offset="0.921875" stop-color="#8177AE"/>
<stop offset="1" stop-color="#595278"/>
</linearGradient>
<clipPath id="clip0_534_109">
<rect width="2175" height="1163" fill="white"/>
</clipPath>
</defs>
</svg>
